<?xml version="1.0" encoding="utf-8"?><!-- Uploaded to: SVG Repo, www.svgrepo.com, Generator: SVG Repo Mixer Tools -->
<svg width="800px" height="800px" viewBox="0 0 24 24" id="bag-alt-1" xmlns="http://www.w3.org/2000/svg" class="icon multi-color"><title style="stroke-width: 2;">bag alt 1</title><path id="tertiary-fill" d="M4,14H20l-.88,6.14a1,1,0,0,1-1,.86H5.87a1,1,0,0,1-1-.86Z" style="fill: #b7b7b7; stroke-width: 2;"></path><path id="secondary-stroke" d="M9,3,7,9m8-6,2,6" style="fill: none; stroke: rgb(44, 169, 188); stroke-linecap: round; stroke-linejoin: round; stroke-width: 2;"></path><path id="primary-stroke" d="M18.15,21H5.85a1,1,0,0,1-1-.84L3,9H21L19.14,20.16A1,1,0,0,1,18.15,21ZM12,17V13M8,17V13m8,4V13" style="fill: none; stroke: rgb(0, 0, 0); stroke-linecap: round; stroke-linejoin: round; stroke-width: 2;"></path></svg>